<?xml version="1.0" encoding="utf-8"?>
<!-- Generator: Adobe Illustrator 21.0.0, SVG Export Plug-In . SVG Version: 6.00 Build 0)  -->
<svg version="1.1" id="Layer_1" xmlns="http://www.w3.org/2000/svg" xmlns:xlink="http://www.w3.org/1999/xlink" x="0px" y="0px"
	 viewBox="0 0 48 48" style="enable-background:new 0 0 48 48;" xml:space="preserve">
<style type="text/css">
	.st0{fill:#FAFAFA;stroke:#616161;stroke-miterlimit:10;}
</style>
<path class="st0" d="M36,6.8c0,0.4-0.2,0.6-0.4,1L19.4,24l16.2,16.2c0.2,0.2,0.4,0.6,0.4,1s-0.2,0.6-0.4,1l-2,2
	c-0.2,0.2-0.6,0.4-1,0.4s-0.6-0.2-1-0.4L12.4,25c-0.2-0.4-0.4-0.6-0.4-1s0.2-0.6,0.4-1L31.6,3.8c0.2-0.2,0.6-0.4,1-0.4
	s0.6,0.2,1,0.4l2,2C35.8,6.2,36,6.4,36,6.8z"/>
</svg>
