<svg id="Layer_1" data-name="Layer 1" xmlns="http://www.w3.org/2000/svg" viewBox="0 0 140.87 140.87"><defs><style>.cls-1{fill:#242854;}</style></defs><title>Untitled-1</title><path class="cls-1" d="M683,313.57A70.43,70.43,0,1,0,753.43,384,70.43,70.43,0,0,0,683,313.57Zm12.74,112.79a10.93,10.93,0,0,1-3.24,7.92q-3.24,3.31-11,3.31t-10.87-3.31a10.93,10.93,0,0,1-3.24-7.92v-4.61a10.7,10.7,0,0,1,3.24-7.85q3.24-3.24,10.87-3.24T692.43,414a10.64,10.64,0,0,1,3.31,7.77ZM715,374.15a28,28,0,0,1-5.62,8.64,29,29,0,0,1-8.21,6,35.28,35.28,0,0,1-9.86,3.17v10.37H671.12v-22q10.8-.43,17.14-3.75T694.59,365v-2q0-6-3.53-8.64a14.31,14.31,0,0,0-8.71-2.59,13.83,13.83,0,0,0-9.65,3.39,17.67,17.67,0,0,0-5.19,8.86l-17.57-7.35a35.61,35.61,0,0,1,3.82-8.42,28.59,28.59,0,0,1,6.55-7.35,33.2,33.2,0,0,1,9.65-5.26,38.77,38.77,0,0,1,13.11-2,42.35,42.35,0,0,1,13.9,2.16,32,32,0,0,1,10.73,6,26.76,26.76,0,0,1,6.91,9.36,28.93,28.93,0,0,1,2.45,12A28.17,28.17,0,0,1,715,374.15Z" transform="translate(-612.57 -313.57)"/></svg>