<?xml version="1.0" encoding="utf-8"?>
<!-- Generator: Adobe Illustrator 21.0.2, SVG Export Plug-In . SVG Version: 6.00 Build 0)  -->
<svg version="1.1" id="Warstwa_1" xmlns="http://www.w3.org/2000/svg" xmlns:xlink="http://www.w3.org/1999/xlink" x="0px" y="0px"
	 viewBox="0 0 31 54" style="enable-background:new 0 0 31 54;" xml:space="preserve">
<style type="text/css">
	.st0{fill:#5F6368;}
</style>
<g>
	<path class="st0" d="M6.3,0L6.3,0H2.9v32.6c-1.7,0.7-2.9,2.2-2.9,4c0,1.7,1.2,3.2,2.9,3.9V54H10V41c9.8-1.2,21-7.4,21-20.6
		C31,8.8,21.4,0.3,6.3,0z M10,38.3L10,38.3c-1.8,0-3.3-1.5-3.3-3.3s1.5-3.3,3.3-3.3V3.1c5.3,0,14,6.6,14,16.6
		C24,32.7,14.8,38.3,10,38.3z"/>
</g>
</svg>
