<?xml version="1.0" encoding="utf-8"?>
<!-- Generator: Adobe Illustrator 21.0.0, SVG Export Plug-In . SVG Version: 6.00 Build 0)  -->
<svg version="1.1" id="Layer_1" xmlns="http://www.w3.org/2000/svg" xmlns:xlink="http://www.w3.org/1999/xlink" x="0px" y="0px"
	 viewBox="0 0 48 48" style="enable-background:new 0 0 48 48;" xml:space="preserve">
<style type="text/css">
	.st0{fill:#FAFAFA;stroke:#616161;stroke-miterlimit:10;}
</style>
<path class="st0" d="M12,41.2c0-0.4,0.2-0.6,0.4-1L28.6,24L12.4,7.8c-0.2-0.2-0.4-0.6-0.4-1s0.2-0.6,0.4-1l2-2
	c0.2-0.2,0.6-0.4,1-0.4s0.6,0.2,1,0.4L35.6,23c0.2,0.4,0.4,0.6,0.4,1s-0.2,0.6-0.4,1L16.4,44.2c-0.2,0.2-0.6,0.4-1,0.4
	s-0.6-0.2-1-0.4l-2-2C12.2,41.8,12,41.6,12,41.2z"/>
</svg>
