<?xml version="1.0" encoding="utf-8"?>
<!-- Generator: Adobe Illustrator 21.0.0, SVG Export Plug-In . SVG Version: 6.00 Build 0)  -->
<svg version="1.1" id="Layer_1" xmlns="http://www.w3.org/2000/svg" xmlns:xlink="http://www.w3.org/1999/xlink" x="0px" y="0px"
	 viewBox="0 0 25 42.2" style="enable-background:new 0 0 25 42.2;" xml:space="preserve">
<style type="text/css">
	.st0{fill:#FFFFFF;stroke:#000000;stroke-miterlimit:10;}
</style>
<path class="st0" d="M0.5,38.3c0-0.4,0.2-0.6,0.4-1l16.2-16.2L0.9,4.9c-0.2-0.2-0.4-0.6-0.4-1s0.2-0.6,0.4-1l2-2
	c0.2-0.2,0.6-0.4,1-0.4s0.6,0.2,1,0.4l19.2,19.2c0.2,0.4,0.4,0.6,0.4,1s-0.2,0.6-0.4,1L4.9,41.3c-0.2,0.2-0.6,0.4-1,0.4
	s-0.6-0.2-1-0.4l-2-2C0.7,38.9,0.5,38.7,0.5,38.3z"/>
</svg>
