<?xml version="1.0" encoding="utf-8"?>
<!-- Generator: Adobe Illustrator 21.0.0, SVG Export Plug-In . SVG Version: 6.00 Build 0)  -->
<svg version="1.1" id="Layer_1" xmlns="http://www.w3.org/2000/svg" xmlns:xlink="http://www.w3.org/1999/xlink" x="0px" y="0px"
	 viewBox="0 0 25 42.2" style="enable-background:new 0 0 25 42.2;" xml:space="preserve">
<style type="text/css">
	.st0{fill:#FFFFFF;stroke:#000000;stroke-miterlimit:10;}
</style>
<path class="st0" d="M24.5,3.9c0,0.4-0.2,0.6-0.4,1L7.9,21.1l16.2,16.2c0.2,0.2,0.4,0.6,0.4,1s-0.2,0.6-0.4,1l-2,2
	c-0.2,0.2-0.6,0.4-1,0.4s-0.6-0.2-1-0.4L0.9,22.1c-0.2-0.4-0.4-0.6-0.4-1s0.2-0.6,0.4-1L20.1,0.9c0.2-0.2,0.6-0.4,1-0.4
	s0.6,0.2,1,0.4l2,2C24.3,3.3,24.5,3.5,24.5,3.9z"/>
</svg>
