<?xml version="1.0" encoding="utf-8"?>
<!-- Generator: Adobe Illustrator 21.0.0, SVG Export Plug-In . SVG Version: 6.00 Build 0)  -->
<svg version="1.1" xmlns="http://www.w3.org/2000/svg" xmlns:xlink="http://www.w3.org/1999/xlink" x="0px" y="0px"
	 viewBox="0 0 27 27" style="enable-background:new 0 0 27 27;" xml:space="preserve">
<style type="text/css">
	.st0{fill:#FFFFFF;stroke:#000000;stroke-width:0.75;}
	.st1{fill:none;stroke:#000000;}
	.st2{fill:none;stroke:#000000;stroke-miterlimit:10;}
</style>
<g id="Layer_1">
	<path class="st0" d="M13.5,0.5c0.9,0,1.7,0.1,2.5,0.2c0.8,0.2,1.7,0.4,2.4,0.7c0.8,0.3,1.5,0.7,2.2,1.2s1.4,1,2,1.6s1.1,1.3,1.6,2
		s0.9,1.5,1.2,2.2c0.3,0.8,0.6,1.6,0.7,2.4s0.2,1.7,0.2,2.5c0,0.9-0.1,1.7-0.2,2.5c-0.1,0.8-0.4,1.7-0.7,2.4
		c-0.3,0.8-0.7,1.5-1.2,2.2s-1,1.4-1.6,2s-1.3,1.1-2,1.6s-1.5,0.9-2.2,1.2c-0.8,0.3-1.6,0.6-2.4,0.7s-1.7,0.2-2.5,0.2
		c-0.9,0-1.7-0.1-2.5-0.2s-1.7-0.4-2.4-0.7c-0.8-0.3-1.5-0.7-2.2-1.2s-1.4-1-2-1.6s-1.1-1.3-1.6-2s-0.9-1.5-1.2-2.2
		c-0.3-0.8-0.6-1.6-0.7-2.4c-0.2-0.8-0.2-1.7-0.2-2.5c0-0.9,0.1-1.7,0.2-2.5C1.1,10,1.3,9.1,1.6,8.4C1.8,7.7,2.2,7,2.7,6.3
		s1-1.4,1.6-2s1.3-1.1,2-1.6s1.4-0.9,2.2-1.2s1.6-0.6,2.4-0.7C11.8,0.6,12.6,0.5,13.5,0.5z"/>
	<line class="st1" x1="19.1" y1="21.1" x2="7.9" y2="21.1"/>
</g>
<g id="Layer_2">
	<g>
		<polyline class="st2" points="19.4,12.5 13.5,18.3 7.6,12.5 		"/>
		<line class="st2" x1="13.5" y1="6.6" x2="13.5" y2="18.4"/>
	</g>
</g>
</svg>
