<?xml version="1.0" encoding="utf-8"?>
<!-- Generator: Adobe Illustrator 21.0.0, SVG Export Plug-In . SVG Version: 6.00 Build 0)  -->
<svg version="1.1" id="Layer_1" xmlns="http://www.w3.org/2000/svg" xmlns:xlink="http://www.w3.org/1999/xlink" x="0px" y="0px"
	 viewBox="0 0 27 27" style="enable-background:new 0 0 27 27;" xml:space="preserve">
<style type="text/css">
	.st0{fill:#FFFFFF;fill-opacity:1;stroke:#000000;stroke-width:0.75;}
	.st1{fill:none;stroke:#000000;stroke-width:1.5;}
</style>
<path class="st0" d="M13.5,0.5c0.9,0,1.7,0.1,2.5,0.2c0.8,0.2,1.7,0.4,2.4,0.7c0.8,0.3,1.5,0.7,2.2,1.2s1.4,1,2,1.6s1.1,1.3,1.6,2
	s0.9,1.5,1.2,2.2c0.3,0.8,0.6,1.6,0.7,2.4s0.2,1.7,0.2,2.5c0,0.9-0.1,1.7-0.2,2.5c-0.1,0.8-0.4,1.7-0.7,2.4
	c-0.3,0.8-0.7,1.5-1.2,2.2s-1,1.4-1.6,2s-1.3,1.1-2,1.6s-1.5,0.9-2.2,1.2c-0.8,0.3-1.6,0.6-2.4,0.7s-1.7,0.2-2.5,0.2
	c-0.9,0-1.7-0.1-2.5-0.2s-1.7-0.4-2.4-0.7c-0.8-0.3-1.5-0.7-2.2-1.2s-1.4-1-2-1.6s-1.1-1.3-1.6-2s-0.9-1.5-1.2-2.2
	c-0.3-0.8-0.6-1.6-0.7-2.4c-0.2-0.8-0.2-1.7-0.2-2.5c0-0.9,0.1-1.7,0.2-2.5C1.1,10,1.3,9.1,1.6,8.4C1.8,7.7,2.2,7,2.7,6.3
	s1-1.4,1.6-2s1.3-1.1,2-1.6s1.4-0.9,2.2-1.2s1.6-0.6,2.4-0.7C11.8,0.6,12.6,0.5,13.5,0.5z"/>
<line class="st1" x1="21" y1="13" x2="7" y2="13"/>
</svg>
